# xmcd
#
# Track frame offsets: 
#        150
#        10965
#        24757
#        37362
#        49972
#        64902
#        80197
#        95427
#        108522
#        122085
#        136022
#        148840
#        160182
#        173437
#        186985
#        199265
#        212500
#        225307
#        236885
#        250670
#        263090
#        278152
#        293085
#        305272
#        318380
#        331217
#
# Disc length: 4570 seconds
#
# Revision: 1
# Processed by: cddbd v1.5.2PL0 Copyright (c) Steve Scherf et al.
# Submitted via: ExactAudioCopyFreeDBPlugin 1.0
#
DISCID=7511d81a
DTITLE=Louis Jordan - Let the Good Times Roll:  The Complete US Decca 
DTITLE=Recordings, 1938-1954 [Bear Family box set]
DYEAR=1992
DGENRE=Rhythm and Blues
TTITLE0=Friendship
TTITLE1=Open the Door Richard
TTITLE2=Boogie Woogie Blue Plate
TTITLE3=Barnyard Boogie
TTITLE4=Every Man to His Own Profession
TTITLE5=Early in the Morning
TTITLE6=Run Joe
TTITLE7=Look Out
TTITLE8=Beans and Corn Bread
TTITLE9=Have You Got the Gumption
TTITLE10=We Can't Agree
TTITLE11=Chicky-Mo, Craney-Crow
TTITLE12=Roamin' Blues
TTITLE13=Inflation Blues
TTITLE14=You're Much Too Fat (And That's That)
TTITLE15=Chug Chug Boogie
TTITLE16=There'll Be No Days Like That
TTITLE17=Pettin' and Pokin'
TTITLE18=You're on the Right Track, Baby
TTITLE19=Don't Burn the Candle at Both Ends
TTITLE20=Why'd You Do It, Baby
TTITLE21=Daddy-O
TTITLE22=Safe, Sane, and Single
TTITLE23=I Know What I've Got, Don't Know What I'm Getting
TTITLE24=You Broke Your Promise
TTITLE25=Push-Ka-Pee Shee Pie (The Saga of Saga Boy)
EXTD=
EXTT0=
EXTT1=
EXTT2=
EXTT3=
EXTT4=
EXTT5=
EXTT6=
EXTT7=
EXTT8=
EXTT9=
EXTT10=
EXTT11=
EXTT12=
EXTT13=
EXTT14=
EXTT15=
EXTT16=
EXTT17=
EXTT18=
EXTT19=
EXTT20=
EXTT21=
EXTT22=
EXTT23=
EXTT24=
EXTT25=
PLAYORDER=
